# xmcd CD database file
#
# Track frame offsets:
#	150
#	14160
#	25944
#	39538
#	53183
#	65770
#	77378
#	86945
#	99639
#	114064
#	130603
#	143961
#	157220
#	170738
#	181636
#	193822
#	210347
#	224150
#	236144
#	257375
#	268118
#	286485
#	295549
#
# Disc length: 4153 seconds
#
# Revision: 0
# Processed by: cddbd v1.5.2PL0 Copyright (c) Steve Scherf et al.
# Submitted via: CDex 1.51
#
DISCID=59103717
DTITLE=Leon Redbone - Up a lazy river, From branch to branch
DYEAR=1900
DGENRE=Blues
TTITLE0=Play Gypsy play
TTITLE1=AT THE CHOCOLATE BON BON BALL
TTITLE2=LAZY RIVER
TTITLE3=WHEN DIXIE STARS ARE PLAYING
TTITLE4=MR JELLY ROLL BACKER
TTITLE5=GOTTA SHAKE THAT THING
TTITLE6=YOURE A HEARTBREAKER
TTITLE7=BITTERSWEET WALTZ
TTITLE8=GOODBYE CHARLIE BLUES
TTITLE9=THATB OLD FAMILY BLUES
TTITLE10=A DREAMERS HOLIDAY
TTITLE11=IM GOING HOME
TTITLE12=TE NA NA
TTITLE13=A HOT TIME IN THE TOWN TONIGHT
TTITLE14=SWEET MAMA PAPAS GOING MAD
TTITLE15=STEP IT UP AND GO
TTITLE16=YOUR CHEATING HEART
TTITLE17=SEDUCED
TTITLE18=WHY
TTITLE19=MY BLUE HEAVEN
TTITLE20=EXTRA BLUES
TTITLE21=WHEN YOU WISH UPON A STAR
TTITLE22=PRAIRIE LULLABY
EXTD=
EXTT0=
EXTT1=
EXTT2=
EXTT3=
EXTT4=
EXTT5=
EXTT6=
EXTT7=
EXTT8=
EXTT9=
EXTT10=
EXTT11=
EXTT12=
EXTT13=
EXTT14=
EXTT15=
EXTT16=
EXTT17=
EXTT18=
EXTT19=
EXTT20=
EXTT21=
EXTT22=
PLAYORDER=
